<svg width="300px" height="51px" viewBox="0 0 300 51" version="1.1" xmlns="http://www.w3.org/2000/svg">
    <g stroke="none" stroke-width="1" fill="none" fill-rule="evenodd">
                        <polygon stroke="#D90E31" stroke-width="2" fill="#D90E31" fill-rule="nonzero" points="28 4 33.848739 21.1238938 52 21.1238938 37.478992 31.8761062 42.722689 49 28 38.8451327 13.277311 49 18.521008 31.8761062 4 21.1238938 22.151261 21.1238938"></polygon>
                                        <polygon stroke="#D90E31" stroke-width="2" fill="#D90E31" fill-rule="nonzero" points="89 4 94.848739 21.1238938 113 21.1238938 98.478992 31.8761062 103.722689 49 89 38.8451327 74.277311 49 79.521008 31.8761062 65 21.1238938 83.151261 21.1238938"></polygon>
                                        <polygon stroke="#D90E31" stroke-width="2" fill="#D90E31" fill-rule="nonzero" points="150 4 155.848739 21.1238938 174 21.1238938 159.478992 31.8761062 164.722689 49 150 38.8451327 135.277311 49 140.521008 31.8761062 126 21.1238938 144.151261 21.1238938"></polygon>
                                        <polygon stroke="#D90E31" stroke-width="2" fill="#D90E31" fill-rule="nonzero" points="211 4 216.848739 21.1238938 235 21.1238938 220.478992 31.8761062 225.722689 49 211 38.8451327 196.277311 49 201.521008 31.8761062 187 21.1238938 205.151261 21.1238938"></polygon>
                                        <polygon stroke="#D90E31" stroke-width="2" fill="#D90E31" fill-rule="nonzero" points="272 4 277.848739 21.1238938 296 21.1238938 281.478992 31.8761062 286.722689 49 272 38.8451327 257.277311 49 262.521008 31.8761062 248 21.1238938 266.151261 21.1238938"></polygon>
                            </g>
</svg>